<svg width="25" height="25" viewBox="0 0 25 25" fill="none" xmlns="http://www.w3.org/2000/svg">
<g id="flat-color-icons:google">
<path id="Vector" d="M22.7141 10.4601H21.875V10.4168H12.5V14.5835H18.387C17.5281 17.009 15.2203 18.7502 12.5 18.7502C9.04845 18.7502 6.25001 15.9517 6.25001 12.5002C6.25001 9.0486 9.04845 6.25016 12.5 6.25016C14.0932 6.25016 15.5427 6.8512 16.6464 7.83298L19.5927 4.88662C17.7323 3.15277 15.2438 2.0835 12.5 2.0835C6.74741 2.0835 2.08334 6.74756 2.08334 12.5002C2.08334 18.2528 6.74741 22.9168 12.5 22.9168C18.2526 22.9168 22.9167 18.2528 22.9167 12.5002C22.9167 11.8017 22.8448 11.12 22.7141 10.4601Z" fill="#FFC107"/>
<path id="Vector_2" d="M3.28436 7.65173L6.70676 10.1616C7.6328 7.86891 9.87551 6.25016 12.5 6.25016C14.0932 6.25016 15.5427 6.8512 16.6463 7.83297L19.5927 4.88662C17.7323 3.15277 15.2437 2.0835 12.5 2.0835C8.49895 2.0835 5.02915 4.34235 3.28436 7.65173Z" fill="#FF3D00"/>
<path id="Vector_3" d="M12.5 22.9165C15.1906 22.9165 17.6354 21.8868 19.4839 20.2124L16.2599 17.4842C15.1789 18.3063 13.8581 18.7509 12.5 18.7499C9.79062 18.7499 7.4901 17.0223 6.62344 14.6113L3.22656 17.2285C4.95052 20.602 8.45156 22.9165 12.5 22.9165Z" fill="#4CAF50"/>
<path id="Vector_4" d="M22.7141 10.4597H21.875V10.4165H12.5V14.5832H18.387C17.9761 15.7376 17.2361 16.7463 16.2583 17.4847L16.2599 17.4837L19.4839 20.2118C19.2557 20.4191 22.9167 17.7082 22.9167 12.4998C22.9167 11.8014 22.8448 11.1196 22.7141 10.4597Z" fill="#1976D2"/>
</g>
</svg>
